<svg xmlns="http://www.w3.org/2000/svg">

<symbol id="loadingLogo" viewBox="0 0 190 56">
  <path fill="#fff" d="M16.475 44.75c-2.6333 0-4.8417-.625-6.625-1.875-1.78333-1.25-3.125-2.95-4.025-5.1-.9-2.1667-1.35-4.5917-1.35-7.275 0-2.7167.45-5.15 1.35-7.3.9-2.15 2.21667-3.8417 3.95-5.075 1.75-1.25 3.9083-1.875 6.475-1.875 2.55 0 4.7583.625 6.625 1.875 1.8833 1.2333 3.3417 2.925 4.375 5.075 1.0333 2.1333 1.55 4.5667 1.55 7.3 0 2.7-.5083 5.125-1.525 7.275-1.0167 2.15-2.45 3.85-4.3 5.1-1.85 1.25-4.0167 1.875-6.5 1.875ZM3.45 56V17h5.325v18.95h.75V56H3.45Zm12.1-16.65c1.5667 0 2.8583-.3917 3.875-1.175 1.0167-.7833 1.7667-1.8417 2.25-3.175.5-1.35.75-2.85.75-4.5 0-1.6333-.25-3.1167-.75-4.45-.5-1.35-1.275-2.4167-2.325-3.2-1.05-.8-2.3833-1.2-4-1.2-1.5333 0-2.7833.375-3.75 1.125-.9667.7333-1.68333 1.7667-2.15 3.1-.45 1.3167-.675 2.8583-.675 4.625 0 1.75.225 3.2917.675 4.625.46667 1.3333 1.1917 2.375 2.175 3.125 1 .7333 2.3083 1.1 3.925 1.1Zm29.0355 5.4c-2.7333 0-5.1333-.5917-7.2-1.775-2.0666-1.1833-3.6833-2.825-4.85-4.925-1.15-2.1-1.725-4.5167-1.725-7.25 0-2.95.5667-5.5083 1.7-7.675 1.1334-2.1833 2.7084-3.875 4.725-5.075 2.0167-1.2 4.35-1.8 7-1.8 2.8 0 5.175.6583 7.125 1.975 1.9667 1.3 3.425 3.1417 4.375 5.525.95 2.3833 1.3084 5.1917 1.075 8.425h-5.975v-2.2c-.0166-2.9333-.5333-5.075-1.55-6.425-1.0166-1.35-2.6166-2.025-4.8-2.025-2.4666 0-4.3.7667-5.5 2.3-1.2 1.5167-1.8 3.7417-1.8 6.675 0 2.7333.6 4.85 1.8 6.35 1.2 1.5 2.95 2.25 5.25 2.25 1.4834 0 2.7584-.325 3.825-.975 1.0834-.6667 1.9167-1.625 2.5-2.875l5.95 1.8c-1.0333 2.4333-2.6333 4.325-4.8 5.675-2.15 1.35-4.525 2.025-7.125 2.025Zm-9.3-12.575v-4.55h18.575v4.55h-18.575ZM76.2137 44c-1.7834.3333-3.5334.475-5.25.425-1.7-.0333-3.225-.3417-4.575-.925-1.35-.6-2.375-1.5417-3.075-2.825-.6167-1.1667-.9417-2.3583-.975-3.575-.0334-1.2167-.05-2.5917-.05-4.125V9.5h6v23.125c0 1.0833.0083 2.0333.025 2.85.0333.8167.2083 1.4833.525 2 .6 1 1.5583 1.5583 2.875 1.675 1.3166.1167 2.8166.05 4.5-.2V44Zm-18.825-22.275V17h18.825v4.725h-18.825ZM80.5195 44V7.25h6.025V44h-6.025Z"/>
  <path fill="#F6B83D" fill-rule="evenodd" d="M112.988 16.3964c-3.519-4.1547-9.386-5.2724-13.7953-1.4679-4.4089 3.8045-5.0296 10.1654-1.5673 14.665 2.2176 2.882 7.8966 8.2264 11.6936 11.6964 1.262 1.1532 1.893 1.7298 2.649 1.961.649.1988 1.392.1988 2.041 0 .756-.2312 1.387-.8078 2.648-1.961 3.797-3.47 9.477-8.8144 11.694-11.6964 3.463-4.4996 2.918-10.9005-1.567-14.665-4.485-3.7644-10.277-2.6868-13.796 1.4679Z" clip-rule="evenodd"/>
  <path fill="#fff" d="M145.8 44 136 17h6.025l6.8 19.575L155.6 17h6.05l-9.8 27h-6.05Zm29.635.75c-2.733 0-5.133-.5917-7.2-1.775s-3.683-2.825-4.85-4.925c-1.15-2.1-1.725-4.5167-1.725-7.25 0-2.95.567-5.5083 1.7-7.675 1.133-2.1833 2.708-3.875 4.725-5.075 2.017-1.2 4.35-1.8 7-1.8 2.8 0 5.175.6583 7.125 1.975 1.967 1.3 3.425 3.1417 4.375 5.525.95 2.3833 1.308 5.1917 1.075 8.425h-5.975v-2.2c-.017-2.9333-.533-5.075-1.55-6.425-1.017-1.35-2.617-2.025-4.8-2.025-2.467 0-4.3.7667-5.5 2.3-1.2 1.5167-1.8 3.7417-1.8 6.675 0 2.7333.6 4.85 1.8 6.35 1.2 1.5 2.95 2.25 5.25 2.25 1.483 0 2.758-.325 3.825-.975 1.083-.6667 1.917-1.625 2.5-2.875l5.95 1.8c-1.033 2.4333-2.633 4.325-4.8 5.675-2.15 1.35-4.525 2.025-7.125 2.025Zm-9.3-12.575v-4.55h18.575v4.55h-18.575Z"/>
</symbol>

<symbol id="loadingLogoTabletAndDesktop" viewBox="0 0 374 112">
  <path fill="#fff" d="M32.95 89.5c-5.2667 0-9.6833-1.25-13.25-3.75-3.5667-2.5-6.25-5.9-8.05-10.2-1.8-4.3333-2.7-9.1833-2.7-14.55 0-5.4333.9-10.3 2.7-14.6 1.8-4.3 4.4333-7.6833 7.9-10.15 3.5-2.5 7.8167-3.75 12.95-3.75 5.1 0 9.5167 1.25 13.25 3.75 3.7667 2.4667 6.6833 5.85 8.75 10.15 2.0667 4.2667 3.1 9.1333 3.1 14.6 0 5.4-1.0167 10.25-3.05 14.55-2.0333 4.3-4.9 7.7-8.6 10.2-3.7 2.5-8.0333 3.75-13 3.75ZM6.9 112V34h10.65v37.9h1.5V112H6.9Zm24.2-33.3c3.1333 0 5.7167-.7833 7.75-2.35 2.0333-1.5667 3.5333-3.6833 4.5-6.35 1-2.7 1.5-5.7 1.5-9 0-3.2667-.5-6.2333-1.5-8.9-1-2.7-2.55-4.8333-4.65-6.4-2.1-1.6-4.7667-2.4-8-2.4-3.0667 0-5.5667.75-7.5 2.25-1.9333 1.4667-3.3667 3.5333-4.3 6.2-.9 2.6333-1.35 5.7167-1.35 9.25 0 3.5.45 6.5833 1.35 9.25.9333 2.6667 2.3833 4.75 4.35 6.25 2 1.4667 4.6167 2.2 7.85 2.2Zm58.0711 10.8c-5.4667 0-10.2667-1.1833-14.4-3.55s-7.3667-5.65-9.7-9.85c-2.3-4.2-3.45-9.0333-3.45-14.5 0-5.9 1.1333-11.0167 3.4-15.35 2.2667-4.3667 5.4167-7.75 9.45-10.15 4.0333-2.4 8.7-3.6 14-3.6 5.6 0 10.35 1.3167 14.2499 3.95 3.933 2.6 6.85 6.2833 8.75 11.05 1.9 4.7667 2.617 10.3833 2.15 16.85h-11.95v-4.4c-.033-5.8667-1.067-10.15-3.0999-12.85-2.0333-2.7-5.2333-4.05-9.6-4.05-4.9333 0-8.6 1.5333-11 4.6-2.4 3.0333-3.6 7.4833-3.6 13.35 0 5.4667 1.2 9.7 3.6 12.7 2.4 3 5.9 4.5 10.5 4.5 2.9667 0 5.5167-.65 7.65-1.95 2.1667-1.3333 3.8333-3.25 4.9999-5.75l11.9 3.6c-2.067 4.8667-5.267 8.65-9.6 11.35-4.2999 2.7-9.0499 4.05-14.2499 4.05Zm-18.6-25.15v-9.1h37.1499v9.1H70.5711ZM152.427 88c-3.566.6667-7.066.95-10.5.85-3.4-.0667-6.45-.6833-9.15-1.85-2.7-1.2-4.75-3.0833-6.15-5.65-1.233-2.3333-1.883-4.7167-1.95-7.15-.066-2.4333-.1-5.1833-.1-8.25V19h12v46.25c0 2.1667.017 4.0667.05 5.7.067 1.6333.417 2.9667 1.05 4 1.2 2 3.117 3.1167 5.75 3.35 2.634.2333 5.634.1 9-.4V88Zm-37.65-44.55V34h37.65v9.45h-37.65ZM161.039 88V14.5h12.05V88h-12.05Z"/>
  <path fill="#F6B83D" fill-rule="evenodd" d="M222.978 37.3751c-6.558-7.7429-17.494-9.8257-25.71-2.7356-8.217 7.0902-9.374 18.9446-2.921 27.3302 4.133 5.371 14.717 15.3309 21.793 21.7979 2.351 2.1491 3.527 3.2236 4.935 3.6546 1.211.3704 2.594.3704 3.805 0 1.408-.431 2.584-1.5055 4.935-3.6546 7.076-6.467 17.661-16.4269 21.794-21.7979 6.452-8.3856 5.437-20.3146-2.921-27.3302-8.358-7.0155-19.152-5.0073-25.71 2.7356Z" clip-rule="evenodd"/>
  <path fill="#fff" d="M285.6 88 266 34h12.05l13.6 39.15L305.2 34h12.1l-19.6 54h-12.1Zm59.27 1.5c-5.466 0-10.266-1.1833-14.4-3.55-4.133-2.3667-7.366-5.65-9.7-9.85-2.3-4.2-3.45-9.0333-3.45-14.5 0-5.9 1.134-11.0167 3.4-15.35 2.267-4.3667 5.417-7.75 9.45-10.15 4.034-2.4 8.7-3.6 14-3.6 5.6 0 10.35 1.3167 14.25 3.95 3.934 2.6 6.85 6.2833 8.75 11.05 1.9 4.7667 2.617 10.3833 2.15 16.85h-11.95v-4.4c-.033-5.8667-1.066-10.15-3.1-12.85-2.033-2.7-5.233-4.05-9.6-4.05-4.933 0-8.6 1.5333-11 4.6-2.4 3.0333-3.6 7.4833-3.6 13.35 0 5.4667 1.2 9.7 3.6 12.7 2.4 3 5.9 4.5 10.5 4.5 2.967 0 5.517-.65 7.65-1.95 2.167-1.3333 3.834-3.25 5-5.75l11.9 3.6c-2.066 4.8667-5.266 8.65-9.6 11.35-4.3 2.7-9.05 4.05-14.25 4.05Zm-18.6-25.15v-9.1h37.15v9.1h-37.15Z"/>
</symbol>

<symbol id="logo" viewBox="0 0 76 23">
  <path fill="#262626" d="M6.59 18.3c-1.05333 0-1.93667-.25-2.65-.75s-1.25-1.18-1.61-2.04c-.36-.8667-.54-1.8367-.54-2.91 0-1.0867.18-2.06.54-2.92.36-.86.88667-1.53667 1.58-2.03.7-.5 1.56333-.75 2.59-.75 1.02 0 1.90333.25 2.65.75.75333.49333 1.3367 1.17 1.75 2.03.4133.8533.62 1.8267.62 2.92 0 1.08-.2033 2.05-.61 2.91-.4067.86-.98 1.54-1.72 2.04s-1.60667.75-2.6.75Zm-5.21 4.5V7.2h2.13v7.58h.3v8.02H1.38Zm4.84-6.66c.62667 0 1.14333-.1567 1.55-.47.40667-.3133.70667-.7367.9-1.27.2-.54.3-1.14.3-1.8 0-.6533-.1-1.2467-.3-1.78-.2-.54-.51-.96667-.93-1.28-.42-.32-.95333-.48-1.6-.48-.61333 0-1.11333.15-1.5.45-.38667.29333-.67333.7067-.86 1.24-.18.5267-.27 1.1433-.27 1.85 0 .7.09 1.3167.27 1.85.18667.5333.47667.95.87 1.25.4.2933.92333.44 1.57.44Zm11.6142 2.16c-1.0933 0-2.0533-.2367-2.88-.71-.8266-.4733-1.4733-1.13-1.94-1.97-.46-.84-.69-1.8067-.69-2.9 0-1.18.2267-2.2033.68-3.07.4534-.87333 1.0834-1.55 1.89-2.03.8067-.48 1.74-.72 2.8-.72 1.12 0 2.07.26333 2.85.79.7867.52 1.37 1.25667 1.75 2.21.38.9533.5234 2.0767.43 3.37h-2.39v-.88c-.0066-1.1733-.2133-2.03-.62-2.57-.4066-.54-1.0466-.81-1.92-.81-.9866 0-1.72.30667-2.2.92-.48.6067-.72 1.4967-.72 2.67 0 1.0933.24 1.94.72 2.54.48.6 1.18.9 2.1.9.5934 0 1.1034-.13 1.53-.39.4334-.2667.7667-.65 1-1.15l2.38.72c-.4133.9733-1.0533 1.73-1.92 2.27-.86.54-1.81.81-2.85.81Zm-3.72-5.03v-1.82h7.43v1.82h-7.43ZM30.4855 18c-.7134.1333-1.4134.19-2.1.17-.68-.0133-1.29-.1367-1.83-.37-.54-.24-.95-.6167-1.23-1.13-.2467-.4667-.3767-.9433-.39-1.43-.0134-.4867-.02-1.0367-.02-1.65V4.2h2.4v9.25c0 .4333.0033.8133.01 1.14.0133.3267.0833.5933.21.8.24.4.6233.6233 1.15.67.5266.0467 1.1266.02 1.8-.08V18Zm-7.53-8.91V7.2h7.53v1.89h-7.53ZM32.2078 18V3.3h2.41V18h-2.41Z"/>
  <path fill="#F6B83D" fill-rule="evenodd" d="M45.4946 7.01677c-1.3596-1.60523-3.6268-2.03704-5.3302-.56712-1.7034 1.46991-1.9432 3.92755-.6055 5.66605.8568 1.1135 3.0511 3.1783 4.5181 4.519.4875.4456.7312.6683 1.0232.7577.251.0768.5378.0768.7887 0 .292-.0894.5358-.3121 1.0232-.7577 1.467-1.3407 3.6613-3.4055 4.5181-4.519 1.3378-1.7385 1.1272-4.2116-.6055-5.66605-1.7327-1.45445-3.9706-1.03811-5.3301.56712Z" clip-rule="evenodd"/>
  <path fill="#262626" d="M58.32 18 54.4 7.2h2.41l2.72 7.83 2.71-7.83h2.42L60.74 18h-2.42Zm11.8541.3c-1.0934 0-2.0534-.2367-2.88-.71-.8267-.4733-1.4734-1.13-1.94-1.97-.46-.84-.69-1.8067-.69-2.9 0-1.18.2266-2.2033.68-3.07.4533-.87333 1.0833-1.55 1.89-2.03.8066-.48 1.74-.72 2.8-.72 1.12 0 2.07.26333 2.85.79.7866.52 1.37 1.25667 1.75 2.21.38.9533.5233 2.0767.43 3.37h-2.39v-.88c-.0067-1.1733-.2134-2.03-.62-2.57-.4067-.54-1.0467-.81-1.92-.81-.9867 0-1.72.30667-2.2.92-.48.6067-.72 1.4967-.72 2.67 0 1.0933.24 1.94.72 2.54.48.6 1.18.9 2.1.9.5933 0 1.1033-.13 1.53-.39.4333-.2667.7666-.65 1-1.15l2.38.72c-.4134.9733-1.0534 1.73-1.92 2.27-.86.54-1.81.81-2.85.81Zm-3.72-5.03v-1.82h7.43v1.82h-7.43Z"/>
</symbol>

<symbol id="logoWhite" viewBox="0 0 76 23">
  <path fill="#fff" d="M6.59 18.3c-1.05333 0-1.93667-.25-2.65-.75s-1.25-1.18-1.61-2.04c-.36-.8667-.54-1.8367-.54-2.91 0-1.0867.18-2.06.54-2.92.36-.86.88667-1.53667 1.58-2.03.7-.5 1.56333-.75 2.59-.75 1.02 0 1.90333.25 2.65.75.75333.49333 1.3367 1.17 1.75 2.03.4133.8533.62 1.8267.62 2.92 0 1.08-.2033 2.05-.61 2.91-.4067.86-.98 1.54-1.72 2.04s-1.60667.75-2.6.75Zm-5.21 4.5V7.2h2.13v7.58h.3v8.02H1.38Zm4.84-6.66c.62667 0 1.14333-.1567 1.55-.47.40667-.3133.70667-.7367.9-1.27.2-.54.3-1.14.3-1.8 0-.6533-.1-1.2467-.3-1.78-.2-.54-.51-.96667-.93-1.28-.42-.32-.95333-.48-1.6-.48-.61333 0-1.11333.15-1.5.45-.38667.29333-.67333.7067-.86 1.24-.18.5267-.27 1.1433-.27 1.85 0 .7.09 1.3167.27 1.85.18667.5333.47667.95.87 1.25.4.2933.92333.44 1.57.44Zm11.6142 2.16c-1.0933 0-2.0533-.2367-2.88-.71-.8266-.4733-1.4733-1.13-1.94-1.97-.46-.84-.69-1.8067-.69-2.9 0-1.18.2267-2.2033.68-3.07.4534-.87333 1.0834-1.55 1.89-2.03.8067-.48 1.74-.72 2.8-.72 1.12 0 2.07.26333 2.85.79.7867.52 1.37 1.25667 1.75 2.21.38.9533.5234 2.0767.43 3.37h-2.39v-.88c-.0066-1.1733-.2133-2.03-.62-2.57-.4066-.54-1.0466-.81-1.92-.81-.9866 0-1.72.30667-2.2.92-.48.6067-.72 1.4967-.72 2.67 0 1.0933.24 1.94.72 2.54.48.6 1.18.9 2.1.9.5934 0 1.1034-.13 1.53-.39.4334-.2667.7667-.65 1-1.15l2.38.72c-.4133.9733-1.0533 1.73-1.92 2.27-.86.54-1.81.81-2.85.81Zm-3.72-5.03v-1.82h7.43v1.82h-7.43ZM30.4855 18c-.7134.1333-1.4134.19-2.1.17-.68-.0133-1.29-.1367-1.83-.37-.54-.24-.95-.6167-1.23-1.13-.2467-.4667-.3767-.9433-.39-1.43-.0134-.4867-.02-1.0367-.02-1.65V4.2h2.4v9.25c0 .4333.0033.8133.01 1.14.0133.3267.0833.5933.21.8.24.4.6233.6233 1.15.67.5266.0467 1.1266.02 1.8-.08V18Zm-7.53-8.91V7.2h7.53v1.89h-7.53ZM32.2078 18V3.3h2.41V18h-2.41Z"/>
  <path fill="#fff" fill-rule="evenodd" d="M45.4946 7.01677c-1.3596-1.60523-3.6268-2.03704-5.3302-.56712-1.7034 1.46991-1.9432 3.92755-.6055 5.66605.8568 1.1135 3.0511 3.1783 4.5181 4.519.4875.4456.7312.6683 1.0232.7577.251.0768.5378.0768.7887 0 .292-.0894.5358-.3121 1.0232-.7577 1.467-1.3407 3.6613-3.4055 4.5181-4.519 1.3378-1.7385 1.1272-4.2116-.6055-5.66605-1.7327-1.45445-3.9706-1.03811-5.3301.56712Z" clip-rule="evenodd"/>
  <path fill="#fff" d="M58.32 18 54.4 7.2h2.41l2.72 7.83 2.71-7.83h2.42L60.74 18h-2.42Zm11.8541.3c-1.0934 0-2.0534-.2367-2.88-.71-.8267-.4733-1.4734-1.13-1.94-1.97-.46-.84-.69-1.8067-.69-2.9 0-1.18.2266-2.2033.68-3.07.4533-.87333 1.0833-1.55 1.89-2.03.8066-.48 1.74-.72 2.8-.72 1.12 0 2.07.26333 2.85.79.7866.52 1.37 1.25667 1.75 2.21.38.9533.5233 2.0767.43 3.37h-2.39v-.88c-.0067-1.1733-.2134-2.03-.62-2.57-.4067-.54-1.0467-.81-1.92-.81-.9867 0-1.72.30667-2.2.92-.48.6067-.72 1.4967-.72 2.67 0 1.0933.24 1.94.72 2.54.48.6 1.18.9 2.1.9.5933 0 1.1033-.13 1.53-.39.4333-.2667.7666-.65 1-1.15l2.38.72c-.4134.9733-1.0534 1.73-1.92 2.27-.86.54-1.81.81-2.85.81Zm-3.72-5.03v-1.82h7.43v1.82h-7.43Z"/>
</symbol>

<symbol id="arrowDown" viewBox="0 0 18 18">
  <path stroke="#262626" stroke-linecap="round" stroke-linejoin="round" stroke-width="2" d="m4.5 6.75 4.5 4.5 4.5-4.5"/>
</symbol>

<symbol id="arrowLeft" viewBox="0 0 20 20">
  <path fill="#262626" fill-opacity=".5" d="M8.83387 10.5917c-.07811-.0775-.1401-.1696-.18241-.2712-.04231-.1015-.06409-.2105-.06409-.3205 0-.10999.02178-.21891.06409-.32046.04231-.10155.1043-.19372.18241-.27119l3.82503-3.81667c.0781-.07747.1401-.16964.1824-.27119.0423-.10155.0641-.21047.0641-.32048s-.0218-.21893-.0641-.32048c-.0423-.10155-.1043-.19372-.1824-.27119-.1562-.15521-.3674-.24232-.5875-.24232-.2202 0-.4314.08711-.5875.24232L7.65887 8.23335C7.1907 8.7021 6.92773 9.33752 6.92773 10c0 .6625.26297 1.2979.73114 1.7667l3.82503 3.825c.1552.154.3647.2407.5833.2417.1097.0006.2184-.0204.3199-.0619.1016-.0415.1939-.1026.2718-.1798.0781-.0775.1401-.1696.1824-.2712.0423-.1015.0641-.2105.0641-.3205 0-.11-.0218-.2189-.0641-.3205-.0423-.1015-.1043-.1937-.1824-.2711l-3.82503-3.8167Z"/>
</symbol>

<symbol id="arrowRight" viewBox="0 0 20 20">
  <path fill="#262626" d="M11.1661 10.5917c.0781-.0775.1401-.1696.1824-.2712.0423-.1015.0641-.2105.0641-.3205 0-.10999-.0218-.21891-.0641-.32046-.0423-.10155-.1043-.19372-.1824-.27119L7.34113 5.59168c-.07811-.07747-.1401-.16964-.18241-.27119-.04231-.10155-.06409-.21047-.06409-.32048s.02178-.21893.06409-.32048c.04231-.10155.1043-.19372.18241-.27119.15614-.15521.36735-.24232.5875-.24232.22016 0 .43137.08711.5875.24232l3.82497 3.82501c.4682.46875.7312 1.10417.7312 1.76665 0 .6625-.263 1.2979-.7312 1.7667l-3.82497 3.825c-.15522.154-.36471.2407-.58333.2417-.10967.0006-.21839-.0204-.31992-.0619-.10154-.0415-.19388-.1026-.27175-.1798-.07811-.0775-.1401-.1696-.18241-.2712-.04231-.1015-.06409-.2105-.06409-.3205 0-.11.02178-.2189.06409-.3205.04231-.1015.1043-.1937.18241-.2711l3.82497-3.8167Z"/>
</symbol>

<symbol id="burger" viewBox="0 0 32 32">
  <path stroke="#262626" stroke-linecap="round" stroke-linejoin="round" stroke-width="3" d="M4 16h24M4 8h24M4 24h24"/>
</symbol>

<symbol id="whiteBurger" viewBox="0 0 32 32">
  <path stroke="#fff" stroke-linecap="round" stroke-linejoin="round" stroke-width="3" d="M4 16h24M4 8h24M4 24h24"/>
</symbol>

<symbol id="calendar" viewBox="0 0 18 18">
  <path stroke="#262626" stroke-linecap="round" stroke-linejoin="round" stroke-width="1.5" d="M14.25 3H3.75c-.82843 0-1.5.67157-1.5 1.5V15c0 .8284.67157 1.5 1.5 1.5h10.5c.8284 0 1.5-.6716 1.5-1.5V4.5c0-.82843-.6716-1.5-1.5-1.5ZM12 1.5v3m-6-3v3m-3.75 3h13.5"/>
</symbol>

<symbol id="check" viewBox="0 0 18 18">
  <path stroke="#08AA83" stroke-linecap="round" stroke-linejoin="round" stroke-width="1.5" d="M15 5.25 6.75008 13.5 3 9.75"/>
</symbol>

<symbol id="cloud" viewBox="0 0 16 16">
  <path stroke="#F6B83D" stroke-linecap="round" stroke-linejoin="round" d="M10.6673 10.6667 8.00065 8l-2.66667 2.6667M8 8v6"/>
  <path stroke="#F6B83D" stroke-linecap="round" stroke-linejoin="round" d="M13.5943 12.26c.6502-.3545 1.1639-.9154 1.4599-1.5943.296-.6788.3576-1.43689.1749-2.15458-.1827-.71769-.5992-1.35412-1.1837-1.80883-.5846-.45471-1.3039-.70181-2.0445-.7023h-.84c-.2017-.7805-.5778-1.50511-1.1-2.11933-.52213-.61423-1.17672-1.1021-1.91455-1.42693-.73783-.32483-1.5397-.47816-2.34532-.44848-.80563.02968-1.59404.24161-2.30596.61985-.71193.37825-1.32885.91296-1.80437 1.56395-.47553.65098-.79729 1.4013-.941097 2.19454-.143806.79324-.105916 1.60876.110822 2.38524.216735.77649.606685 1.49377 1.140525 2.09787"/>
  <path stroke="#F6B83D" stroke-linecap="round" stroke-linejoin="round" d="M10.6673 10.6667 8.00065 8l-2.66667 2.6667"/>
</symbol>

<symbol id="crossModal" viewBox="0 0 32 32">
  <path stroke="#262626" stroke-linecap="round" stroke-linejoin="round" stroke-width="3" d="M24 8 8 24M8 8l16 16"/>
</symbol>

<symbol id="crossModalWhite" viewBox="0 0 32 32">
  <path stroke="#fff" stroke-linecap="round" stroke-linejoin="round" stroke-width="3" d="M24 8 8 24M8 8l16 16"/>
</symbol>

<symbol id="edit" viewBox="0 0 18 18">
  <g clip-path="url(#a)">
    <path stroke="#F6B83D" stroke-linecap="round" stroke-linejoin="round" stroke-width="1.5" d="M12.75 2.25c.197-.19699.4308-.35324.6882-.45985.2574-.1066.5332-.16147.8118-.16147.2786 0 .5544.05487.8118.16147.2574.10661.4912.26286.6882.45985.197.19698.3532.43083.4598.6882.1066.25737.1615.53322.1615.8118 0 .27857-.0549.55442-.1615.81179s-.2628.49122-.4598.68821L5.625 15.375 1.5 16.5l1.125-4.125L12.75 2.25Z"/>
  </g>
  <defs>
    <clipPath id="a">
      <path fill="#fff" d="M0 0h18v18H0z"/>
    </clipPath>
  </defs>
</symbol>

<symbol id="eye" viewBox="0 0 22 22">
  <g stroke="#F6B83D" stroke-linecap="round" stroke-linejoin="round" stroke-width="2" clip-path="url(#a)">
    <path d="M.916016 11S4.58268 3.66667 10.9993 3.66667C17.416 3.66667 21.0827 11 21.0827 11s-3.6667 7.3333-10.0834 7.3333C4.58268 18.3333.916016 11 .916016 11Z"/>
    <path d="M11 13.75c1.5188 0 2.75-1.2312 2.75-2.75 0-1.51878-1.2312-2.75-2.75-2.75-1.51878 0-2.75 1.23122-2.75 2.75 0 1.5188 1.23122 2.75 2.75 2.75Z"/>
  </g>
  <defs>
    <clipPath id="a">
      <path fill="#fff" d="M0 0h22v22H0z"/>
    </clipPath>
  </defs>
</symbol>

<symbol id="eyeOff" viewBox="0 0 18 18">
  <g stroke="#F6B83D" stroke-linecap="round" stroke-linejoin="round" stroke-width="1.5" clip-path="url(#a)">
    <path d="M13.455 13.455C12.1729 14.4322 10.6118 14.9736 9 15 3.75 15 .75 8.99999.75 8.99999c.93292-1.73858 2.22685-3.25755 3.795-4.455m2.88-1.365c.51625-.12084 1.0448-.18125 1.575-.18 5.25 0 8.25 6 8.25 6-.4553.8517-.9982 1.65351-1.62 2.39251m-5.04-.8025c-.206.221-.4544.3984-.73038.5213-.276.123-.57394.1891-.87605.1945-.30211.0053-.6022-.0503-.88236-.1634-.28017-.1132-.53467-.2816-.74832-.4953-.21366-.2137-.38209-.4682-.49526-.74832-.11316-.28016-.16873-.58025-.1634-.88236.00533-.30211.07145-.60005.19443-.87605.12297-.27599.30028-.5244.52134-.73038M.75.75l16.5 16.5"/>
  </g>
  <defs>
    <clipPath id="a">
      <path fill="#fff" d="M0 0h18v18H0z"/>
    </clipPath>
  </defs>
</symbol>

<symbol id="foot" viewBox="0 0 34 34">
  <path fill="#F6B83D" d="M13.2812 5.3125c-1.1368 0-2.1271.646-2.7561 1.52788-.62897.88187-.9626 2.02087-.9626 3.25342 0 1.2325.33363 2.3725.9626 3.2544.629.8819 1.6193 1.5268 2.7561 1.5268 1.1369 0 2.1272-.646 2.7562-1.5279.629-.8818.9626-2.0208.9626-3.2533 0-1.23255-.3336-2.37261-.9626-3.25449-.629-.88187-1.6193-1.52681-2.7562-1.52681ZM17 10.0938c0 1.2325.3336 2.3725.9626 3.2544.629.8819 1.6203 1.5268 2.7562 1.5268 1.1368 0 2.1271-.646 2.7561-1.5279.629-.8818.9626-2.0208.9626-3.2533 0-1.23255-.3336-2.37261-.9626-3.25449-.629-.88187-1.6193-1.52681-2.7561-1.52681-1.1369 0-2.1272.646-2.7562 1.52788C17.3336 7.72225 17 8.86125 17 10.0938Zm-3.7188-2.6563c.3316 0 .6971.16575 1.0307.63112.3294.46432.5631 1.20382.5631 2.02518 0 .8213-.2337 1.5618-.5631 2.0251-.3336.4653-.6991.6311-1.0307.6311-.3315 0-.697-.1658-1.0306-.6311-.3294-.4643-.5631-1.2038-.5631-2.0251 0-.82136.2337-1.56193.5631-2.02518.3336-.46537.6991-.63112 1.0306-.63112Zm7.4376 0c.3314 0 .6969.16575 1.0306.63112.3293.46432.5631 1.20382.5631 2.02518 0 .8213-.2338 1.5618-.5631 2.0251-.3337.4653-.6992.6311-1.0306.6311-.3315 0-.697-.1658-1.0307-.6311-.3293-.4643-.5631-1.2038-.5631-2.0251 0-.82136.2338-1.56193.5631-2.02518.3337-.46537.6992-.63112 1.0307-.63112ZM7.96875 12.75c-1.13688 0-2.12712.646-2.75612 1.5279-.629.8818-.96263 2.0208-.96263 3.2533 0 1.2326.33363 2.3726.96263 3.2545.629.8819 1.61924 1.5268 2.75612 1.5268 1.13688 0 2.12715-.646 2.75615-1.5279.629-.8818.9626-2.0208.9626-3.2534 0-1.2325-.3336-2.3725-.9626-3.2544-.629-.8819-1.61927-1.5268-2.75615-1.5268Zm18.06245 0c-1.1368 0-2.1271.646-2.7561 1.5279-.629.8818-.9626 2.0208-.9626 3.2533 0 1.2326.3336 2.3726.9626 3.2545.629.8819 1.6193 1.5268 2.7561 1.5268 1.1369 0 2.1272-.646 2.7562-1.5279.629-.8818.9626-2.0208.9626-3.2534 0-1.2325-.3336-2.3725-.9626-3.2544-.629-.8819-1.6193-1.5268-2.7562-1.5268ZM7.96875 14.875c.3315 0 .697.1657 1.03063.6311.32937.4643.56312 1.2038.56312 2.0251 0 .8214-.23375 1.5619-.56312 2.0252-.33363.4654-.69913.6311-1.03063.6311-.3315 0-.697-.1657-1.03062-.6311-.32938-.4633-.56313-1.2038-.56313-2.0252 0-.8213.23375-1.5618.56313-2.0251.33362-.4654.69912-.6311 1.03062-.6311Zm18.06245 0c.3315 0 .697.1657 1.0307.6311.3293.4643.5631 1.2038.5631 2.0251 0 .8214-.2338 1.5619-.5631 2.0252-.3337.4654-.6992.6311-1.0307.6311-.3314 0-.6969-.1657-1.0306-.6311-.3293-.4643-.5631-1.2038-.5631-2.0252 0-.8213.2338-1.5618.5631-2.0251.3337-.4654.6992-.6311 1.0306-.6311ZM17 17c-1.4163 0-2.4044.9191-2.89 1.7266-.4824.8075-.7799 1.479-1.0625 1.7595-.1626.1668-1.1879.5525-2.2567 1.0975-.5345.2731-1.07318.6375-1.52686 1.1953-.45688.5579-.765 1.3282-.765 2.192 0 2.04 1.67876 3.7187 3.71876 3.7187.9201 0 1.8806-.2975 2.8209-.5631.9446-.272 1.9614-.5015 1.9614-.5015s1.0168.2295 1.9592.4994c.9414.2656 1.9019.5631 2.822.5631 2.04 0 3.7188-1.6788 3.7188-3.7187 0-.8437-.3113-1.6151-.765-2.1569-.4516-.5451-.9956-.8819-1.5258-1.1635-1.0625-.5631-2.1069-1.0093-2.2578-1.1623-.255-.2518-.5418-.9457-1.0306-1.7574C19.4331 17.9138 18.4237 17 17 17Zm0 2.125c.7013 0 .7788.17 1.0944.697.3187.5259.5567 1.4195 1.3281 2.1919.8766.8713 1.9837 1.0625 2.7901 1.4918.4038.2146.7119.443.8968.664.1838.22.2656.4208.2656.7969 0 .8925-.7013 1.5938-1.5938 1.5938-.3081 0-1.3004-.2338-2.2248-.4994-.9244-.2624-1.6894-.5631-2.5564-.5631s-1.632.3007-2.5564.5631c-.9244.2656-1.9167.4994-2.2248.4994-.8925 0-1.5938-.7013-1.5938-1.5938 0-.4282.0893-.6481.2656-.8649.1764-.2156.5015-.4292.8968-.63.7905-.4038 1.8912-.5631 2.789-1.461.7788-.783 1.0126-1.7053 1.3282-2.2259.3102-.5206.3846-.664 1.0943-.664L17 19.125Z"/>
</symbol>

<symbol id="heart" viewBox="0 0 18 18">
  <path stroke="#F6B83D" stroke-linecap="round" stroke-linejoin="round" stroke-width="1.5" d="M15.6286 3.45753c-.383-.38325-.8379-.68727-1.3385-.89469-.5006-.20742-1.0371-.31418-1.579-.31418-.5418 0-1.0784.10676-1.579.31418-.5006.20742-.9554.51144-1.33848.89469l-.795.795-.795-.795c-.77377-.77377-1.82322-1.20847-2.9175-1.20847-1.09427 0-2.14373.4347-2.9175 1.20847-.77376.77377-1.20846 1.82322-1.20846 2.9175 0 1.09427.4347 2.14373 1.20846 2.9175l.795.79497 5.835 5.835 5.83498-5.835.795-.79497c.3833-.38307.6873-.83789.8947-1.33849.2074-.50059.3142-1.03715.3142-1.57901 0-.54187-.1068-1.07843-.3142-1.57902-.2074-.50059-.5114-.95542-.8947-1.33848Z"/>
</symbol>

<symbol id="female" viewBox="0 0 20 20">
  <path stroke="#F43F5E" stroke-linecap="round" stroke-linejoin="round" stroke-width="1.5" d="M10.0007 10.8333c2.3011 0 4.1666-1.86545 4.1666-4.16663 0-2.30119-1.8655-4.16667-4.1666-4.16667-2.30123 0-4.16672 1.86548-4.16672 4.16667 0 2.30118 1.86548 4.16663 4.16672 4.16663Zm0 0V17.5M7.50065 15h5.00005"/>
</symbol>

<symbol id="femaleWhite" viewBox="0 0 24 24">
  <path stroke="#fff" stroke-linecap="round" stroke-linejoin="round" stroke-width="1.5" d="M12 13c2.7614 0 5-2.2386 5-5 0-2.76142-2.2386-5-5-5-2.76142 0-5 2.23858-5 5 0 2.7614 2.23858 5 5 5Zm0 0v8m-3-3h6"/>
</symbol>

<symbol id="male" viewBox="0 0 20 20">
  <path stroke="#54ADFF" stroke-linecap="round" stroke-linejoin="round" stroke-width="1.5" d="M10.0007 9.16667c-2.30124 0-4.16672 1.86543-4.16672 4.16663 0 2.3012 1.86548 4.1667 4.16672 4.1667 2.3011 0 4.1666-1.8655 4.1666-4.1667 0-2.3012-1.8655-4.16663-4.1666-4.16663Zm0 0V2.5m0 0 3.3333 3.33333M10.0007 2.5 6.66732 5.83333"/>
</symbol>

<symbol id="maleWhite" viewBox="0 0 24 24">
  <path stroke="#fff" stroke-linecap="round" stroke-linejoin="round" stroke-width="1.5" d="M12 11c-2.76142 0-5 2.2386-5 5s2.23858 5 5 5c2.7614 0 5-2.2386 5-5s-2.2386-5-5-5Zm0 0V3m0 0 4 4m-4-4L8 7"/>
</symbol>

<symbol id="entity" viewBox="0 0 20 20">
  <path fill="#F6B83D" fill-rule="evenodd" d="M7.30895 6.45415c-.59802-.23353-1.25641-.26314-1.87298-.08423-.61657.1789-1.15685.55632-1.53699 1.07368-.38014.51736-.57889 1.14573-.56539 1.78759.01349.64186.23847 1.26131.64002 1.76221.40155.501.95721.8553 1.58076 1.0082.62354.1528 1.2801.0956 1.86778-.1629s1.07361-.7037 1.38239-1.2665c.30879-.5629.42314-1.21196.32533-1.84647-.00831-.05407-.00589-.10924.00712-.16237.01301-.05314.03635-.10318.06871-.14729.03235-.04411.07307-.08142.11984-.10979.04677-.02837.09867-.04725.15273-.05557.05407-.00831.10924-.00589.16238.00712.05313.01301.10318.03635.14729.0687.04411.03236.08141.07308.10978.11985.02838.04677.04726.09867.05557.15273.12561.81578-.02154 1.65019-.41862 2.37379s-1.0219 1.2959-1.77748 1.6281c-.75559.3323-1.5997.4058-2.40135.2092-.80165-.1965-1.51601-.6522-2.03223-1.2962-.51623-.644-.80545-1.4405-.82278-2.26568-.01734-.82521.23818-1.63307.7269-2.29822.48872-.66516 1.18331-1.1504 1.976-1.38045.79269-.23005 1.63914-.19203 2.40801.10815.05165.01937.09893.04881.13911.0866.04018.03779.07245.08319.09494.13356.02249.05036.03475.10469.03607.15984.00132.05514-.00832.11-.02837.16138-.02006.05139-.05012.09828-.08844.13795-.03832.03968-.08414.07134-.1348.09317-.05066.02182-.10515.03336-.16031.03395-.05515.00059-.10988-.00937-.16099-.0301Z" clip-rule="evenodd"/>
  <path fill="#F6B83D" fill-rule="evenodd" d="M5.83203 16.2502v-3.332c0-.1105.04388-.2164.12199-.2945.07811-.0781.18405-.122.29451-.122s.2164.0439.29451.122c.07811.0781.12199.184.12199.2945v3.332c0 .1104-.04388.2164-.12199.2945-.07811.0781-.18405.122-.29451.122s-.2164-.0439-.29451-.122c-.07811-.0781-.12199-.1841-.12199-.2945Z" clip-rule="evenodd"/>
  <path fill="#F6B83D" fill-rule="evenodd" d="M4.58203 14.1677c0-.1105.04388-.2164.12199-.2945.07811-.0781.18405-.122.29451-.122h2.49898c.11047 0 .2164.0439.29451.122.07811.0781.12199.184.12199.2945 0 .1104-.04388.2164-.12199.2945-.07811.0781-.18404.122-.29451.122H4.99853c-.11046 0-.2164-.0439-.29451-.122-.07811-.0781-.12199-.1841-.12199-.2945Zm7.45617-7.80393c-.4616-.1303-.9482-.14472-1.4167-.04199-.4684.10274-.90433.31946-1.26901.63096-.36468.3115-.64688.70816-.82159 1.15481-.17471.44666-.23653.92952-.17998 1.40578.00676.05446.00269.10972-.01198.1626-.01466.05288-.03964.10234-.07348.14554s-.07589.07929-.12372.10619c-.04783.0269-.10051.04408-.155.05055-.0545.00648-.10973.00212-.16254-.01282-.0528-.01494-.10213-.04017-.14516-.07423-.04302-.03407-.07889-.0763-.10554-.12427-.02665-.04798-.04355-.10074-.04975-.15527-.0973-.81965.07865-1.64851.50056-2.35794.4219-.70943 1.06618-1.25977 1.83283-1.56562.76666-.30584 1.61286-.35009 2.40716-.12587.7944.22421 1.4926.70436 1.9862 1.36592.4936.66156.755 1.46754.7437 2.29287-.0113.82532-.2947 1.62382-.8062 2.27172-.5115.6478-1.2225 1.1086-2.0227 1.311-.8002.2024-1.6449.1351-2.40287-.1916-.05024-.0217-.09573-.053-.13386-.0922-.03814-.0392-.06817-.0855-.0884-.1364-.04085-.1026-.03926-.2172.00443-.3187.04369-.1015.12589-.1814.22852-.2223.10264-.0408.2173-.0392.31878.0045.3664.1578.7614.2388 1.1604.2379.399-.0009.7935-.0837 1.1592-.2433s.6948-.3925.9668-.6844.4813-.6365.6147-1.0125c.1335-.37603.1884-.77543.1613-1.17351-.0272-.39808-.1357-.78635-.319-1.14078-.1832-.35443-.4373-.66747-.7464-.91974-.3091-.25228-.6668-.43842-1.0507-.5469Z" clip-rule="evenodd"/>
  <path fill="#F6B83D" fill-rule="evenodd" d="M13.6591 7.17344c-.0781-.07811-.122-.18403-.122-.29447 0-.11044.0439-.21636.122-.29446l3.1237-3.12373c.0384-.03978.0844-.07151.1352-.09334.0508-.02183.1054-.03332.1607-.0338.0553-.00048.1102.01006.1614.031.0512.02094.0977.05187.1368.09098.0391.0391.07.0856.0909.13679.021.05119.0315.10603.031.16133-.0004.0553-.0119.10996-.0337.16077-.0219.05082-.0536.09677-.0934.13519L14.248 7.17344c-.0781.07808-.184.12194-.2945.12194-.1104 0-.2163-.04386-.2944-.12194Z" clip-rule="evenodd"/>
  <path fill="#F6B83D" fill-rule="evenodd" d="M17.0455 6.25423c-.0547-.0007-.1087-.01218-.159-.03376-.0503-.02159-.0958-.05287-.1339-.09205-.0382-.03917-.0683-.08549-.0886-.1363-.0202-.0508-.0303-.1051-.0296-.1598l.0208-1.65516-1.6551.02082c-.1105.00144-.217-.04106-.2961-.11816-.0791-.07709-.1244-.18246-.1258-.29292-.0015-.11046.041-.21697.1181-.29609.0771-.07913.1825-.12438.2929-.12582l2.5099-.03165-.0317 2.50981c-.0007.0547-.0122.10872-.0338.15898-.0215.05026-.0528.09578-.092.13395-.0392.03818-.0855.06826-.1363.08853-.0508.02027-.1051.03034-.1598.02962Z" clip-rule="evenodd"/>
</symbol>

<symbol id="entityWhite" viewBox="0 0 24 24">
  <path fill="#fff" fill-rule="evenodd" d="M8.77074 7.74498c-.71763-.28024-1.50769-.31577-2.24757-.10108-.73989.21468-1.38822.66759-1.84439 1.28842-.45617.62083-.69467 1.37488-.67847 2.14508.01619.7703.28616 1.5136.76802 2.1147s1.14866 1.0264 1.89691 1.2098c.74825.1834 1.53612.1147 2.24134-.1955.70521-.3101 1.28832-.8444 1.65892-1.5198.3705-.6755.5077-1.4543.3903-2.2157-.0099-.0649-.007-.1311.0086-.1949.0156-.0637.0436-.1238.0824-.1767.0389-.053.0877-.0977.1438-.13177.0562-.03404.1184-.0567.1833-.06668.0649-.00997.1311-.00707.1949.00854.0637.01561.1238.04363.1767.08245.053.03886.0977.08766.1318.14386.034.0561.0567.1184.0666.1832.1508.979-.0258 1.9803-.5023 2.8486-.4765.8683-1.2263 1.5551-2.13298 1.9538-.9067.3986-1.91963.4868-2.88161.251-.96198-.2359-1.81921-.7827-2.43868-1.5555-.61947-.7729-.96653-1.7286-.98734-2.7188-.0208-.9903.28582-1.9597.87228-2.75789.58647-.79818 1.41998-1.38048 2.37121-1.65654.95122-.27605 1.96696-.23043 2.88961.12979.06198.02324.11872.05856.16693.10392.04821.04535.08694.09982.11393.16026.02699.06044.0417.12564.04329.19181.00158.06618-.00999.132-.03406.19367-.02406.06166-.06013.11793-.10612.16554-.04598.04761-.10097.08561-.16176.11179-.06079.02619-.12618.04003-.19237.04074-.06618.00071-.13185-.01123-.19319-.03611Z" clip-rule="evenodd"/>
  <path fill="#fff" fill-rule="evenodd" d="M6.99805 19.5002v-3.9984c0-.1325.05265-.2597.14638-.3534.09373-.0937.22086-.1464.35341-.1464.13256 0 .25968.0527.35341.1464.09373.0937.14639.2209.14639.3534v3.9984c0 .1326-.05266.2597-.14639.3534S7.6304 20 7.49784 20c-.13255 0-.25968-.0527-.35341-.1464-.09373-.0937-.14638-.2208-.14638-.3534Z" clip-rule="evenodd"/>
  <path fill="#fff" fill-rule="evenodd" d="M5.49902 17.0012c0-.1325.05266-.2597.14639-.3534s.22086-.1464.35341-.1464H8.9976c.13256 0 .25968.0527.35341.1464.09373.0937.14639.2209.14639.3534 0 .1326-.05266.2597-.14639.3534-.09373.0938-.22085.1464-.35341.1464H5.99882c-.13255 0-.25968-.0526-.35341-.1464-.09373-.0937-.14639-.2208-.14639-.3534Zm8.94738-9.36468c-.5539-.15636-1.1378-.17367-1.7-.05039-.5621.12329-1.0852.38335-1.5228.75715-.4376.3738-.7763.84979-.9859 1.38578-.2097.53594-.28387 1.11544-.216 1.68694.0081.0653.0032.1316-.0144.1951-.01758.0635-.04755.1228-.08816.1747-.04061.0518-.09106.0951-.14846.1274-.0574.0323-.12062.0529-.18601.0606-.06539.0078-.13168.0026-.19504-.0153-.06337-.018-.12256-.0482-.17419-.0891-.05163-.0409-.09467-.0916-.12665-.1491-.03198-.0576-.05227-.1209-.0597-.1864-.11677-.9835.09437-1.97817.60066-2.82949.50625-.85132 1.27945-1.51173 2.19945-1.87874.9199-.36702 1.9353-.42012 2.8886-.15105.9532.26906 1.791.84523 2.3833 1.6391.5924.79387.9061 1.76108.8925 2.75148-.0135.9904-.3536 1.9486-.9674 2.726-.6138.7774-1.467 1.3304-2.4273 1.5733-.9602.2429-1.9738.162-2.8834-.23-.0603-.026-.1149-.0636-.1606-.1106-.0458-.0471-.0818-.1027-.1061-.1637-.049-.1231-.0471-.2607.0053-.3825.0524-.1217.1511-.2176.2742-.2667.1232-.049.2608-.0471.3825.0053.4398.1895.9137.2867 1.3925.2856.4788-.0011.9523-.1005 1.3911-.292.4388-.1915.8337-.471 1.1602-.8213.3264-.3502.5775-.7638.7376-1.215.1602-.4512.226-.9305.1935-1.4082-.0326-.4777-.1628-.9436-.3827-1.36891-.2199-.42532-.5248-.80097-.8958-1.1037-.3709-.30273-.8-.52609-1.2608-.65627Z" clip-rule="evenodd"/>
  <path fill="#fff" fill-rule="evenodd" d="M16.3915 8.60812c-.0937-.09373-.1464-.22083-.1464-.35336s.0527-.25963.1464-.35335l3.7484-3.74848c.0461-.04774.1013-.08581.1623-.11201.0609-.02619.1265-.03998.1929-.04055.0663-.00058.1322.01207.1936.0372.0614.02513.1172.06224.1641.10916.047.04693.0841.10273.1092.16416.0251.06142.0378.12723.0372.1936-.0006.06636-.0144.13194-.0406.19292-.0261.06098-.0642.11613-.112.16223l-3.7484 3.74848c-.0938.0937-.2209.14633-.3534.14633-.1325 0-.2596-.05263-.3533-.14633Z" clip-rule="evenodd"/>
  <path fill="#fff" fill-rule="evenodd" d="M20.455 7.50508c-.0657-.00085-.1305-.01462-.1908-.04052-.0603-.02591-.1149-.06344-.1607-.11045-.0458-.04702-.0819-.1026-.1063-.16356-.0243-.06097-.0364-.12613-.0355-.19177l.025-1.98619-1.9862.02499c-.1326.00172-.2604-.04928-.3553-.14179-.095-.09252-.1493-.21896-.151-.35151-.0017-.13256.0493-.26037.1418-.35531.0925-.09495.2189-.14926.3515-.15099L20.9993 4l-.038 3.01178c-.0009.06563-.0146.13046-.0405.19077-.0259.06032-.0635.11494-.1105.16075-.047.0458-.1026.0819-.1636.10623-.0609.02433-.1261.03641-.1917.03555Z" clip-rule="evenodd"/>
</symbol>

<symbol id="plus" viewBox="0 0 18 18">
  <path stroke="#fff" stroke-linecap="round" stroke-linejoin="round" stroke-width="1.5" d="M9 3.75v10.5M3.75 9h10.5"/>
</symbol>

<symbol id="search" viewBox="0 0 18 18">
  <path stroke="#262626" stroke-linecap="round" stroke-linejoin="round" stroke-width="2" d="M8.25 14.25c3.3137 0 6-2.6863 6-6 0-3.31371-2.6863-6-6-6-3.31371 0-6 2.68629-6 6 0 3.3137 2.68629 6 6 6Zm7.5008 1.5-3.2625-3.2625"/>
</symbol>

<symbol id="star" viewBox="0 0 16 16">
  <g clip-path="url(#a)">
    <path fill="#FFC531" stroke="#FFC531" stroke-width="1.2" d="M6.20021 4.69703 8 1.28579l1.79979 3.41124c.15917.30167.44931.51244.78531.57059l3.8005.65757-2.6881 2.76584c-.2377.2446-.3486.58563-.3.92324l.549 3.81763-3.46113-1.7018c-.30608-.1506-.66466-.1505-.97074 0l-3.46115 1.7018.54902-3.81763c.04855-.33761-.06226-.67864-.29998-.92324L1.6144 5.92519l3.80046-.65757c.33609-.05815.62618-.26892.78535-.57059Zm8.31749 1.09225-.0002.00019.0002-.00019ZM3.8834 13.5155h.00013-.00013Z"/>
  </g>
  <defs>
    <clipPath id="a">
      <path fill="#fff" d="M0 0h16v16H0z"/>
    </clipPath>
  </defs>
</symbol>

<symbol id="trash" viewBox="0 0 16 16">
  <path stroke="#F6B83D" stroke-linecap="round" stroke-linejoin="round" stroke-width="1.2" d="M2 4h12m-1.3327.00001v9.33329c0 .3537-.1405.6928-.3905.9429-.2501.25-.5892.3905-.9428.3905H4.66732c-.35362 0-.69276-.1405-.94281-.3905-.25005-.2501-.39053-.5892-.39053-.9429V4.00001m2 0V2.66668c0-.35363.14048-.69276.39053-.94281s.58919-.39053.94281-.39053h2.66667c.35362 0 .69271.14048.94281.39053.25.25005.3905.58918.3905.94281v1.33333M6.66602 7.33334v3.99996m2.66796-3.99996v3.99996"/>
</symbol>

<symbol id="user" viewBox="0 0 20 20">
  <path fill="#F6B83D" stroke="#F6B83D" stroke-linecap="round" stroke-linejoin="round" stroke-width="2" d="M9.99955 12.5c-2.64173 0-4.991 1.2755-6.48667 3.255-.32191.426-.48286.639-.4776.9269.00407.2224.14374.503.31874.6403.22652.1778.54042.1778 1.16822.1778H15.4769c.6278 0 .9417 0 1.1682-.1778.175-.1373.3147-.4179.3187-.6403.0053-.2879-.1557-.5009-.4776-.9269-1.4956-1.9795-3.8449-3.255-6.48665-3.255ZM10 10c2.0711 0 3.75-1.67893 3.75-3.75 0-2.07107-1.6789-3.75-3.75-3.75-2.07107 0-3.75 1.67893-3.75 3.75C6.25 8.32107 7.92893 10 10 10Z"/>
</symbol>

<symbol id="whiteUser" viewBox="0 0 20 20">
  <path fill="#F6B83D" stroke="#F6B83D" stroke-linecap="round" stroke-linejoin="round" stroke-width="2" d="M9.99955 12.5c-2.64173 0-4.991 1.2755-6.48667 3.255-.32191.426-.48286.639-.4776.9269.00407.2224.14374.503.31874.6403.22652.1778.54042.1778 1.16822.1778H15.4769c.6278 0 .9417 0 1.1682-.1778.175-.1373.3147-.4179.3187-.6403.0053-.2879-.1557-.5009-.4776-.9269-1.4956-1.9795-3.8449-3.255-6.48665-3.255ZM10 10c2.0711 0 3.75-1.67893 3.75-3.75 0-2.07107-1.6789-3.75-3.75-3.75-2.07107 0-3.75 1.67893-3.75 3.75C6.25 8.32107 7.92893 10 10 10Z"/>
</symbol>

</svg>