<svg viewBox="0 0 76 23" fill="none" xmlns="http://www.w3.org/2000/svg">
<path fill="#262626" d="M6.59 18.3c-1.05333 0-1.93667-.25-2.65-.75s-1.25-1.18-1.61-2.04c-.36-.8667-.54-1.8367-.54-2.91 0-1.0867.18-2.06.54-2.92.36-.86.88667-1.53667 1.58-2.03.7-.5 1.56333-.75 2.59-.75 1.02 0 1.90333.25 2.65.75.75333.49333 1.3367 1.17 1.75 2.03.4133.8533.62 1.8267.62 2.92 0 1.08-.2033 2.05-.61 2.91-.4067.86-.98 1.54-1.72 2.04s-1.60667.75-2.6.75Zm-5.21 4.5V7.2h2.13v7.58h.3v8.02H1.38Zm4.84-6.66c.62667 0 1.14333-.1567 1.55-.47.40667-.3133.70667-.7367.9-1.27.2-.54.3-1.14.3-1.8 0-.6533-.1-1.2467-.3-1.78-.2-.54-.51-.96667-.93-1.28-.42-.32-.95333-.48-1.6-.48-.61333 0-1.11333.15-1.5.45-.38667.29333-.67333.7067-.86 1.24-.18.5267-.27 1.1433-.27 1.85 0 .7.09 1.3167.27 1.85.18667.5333.47667.95.87 1.25.4.2933.92333.44 1.57.44Zm11.6142 2.16c-1.0933 0-2.0533-.2367-2.88-.71-.8266-.4733-1.4733-1.13-1.94-1.97-.46-.84-.69-1.8067-.69-2.9 0-1.18.2267-2.2033.68-3.07.4534-.87333 1.0834-1.55 1.89-2.03.8067-.48 1.74-.72 2.8-.72 1.12 0 2.07.26333 2.85.79.7867.52 1.37 1.25667 1.75 2.21.38.9533.5234 2.0767.43 3.37h-2.39v-.88c-.0066-1.1733-.2133-2.03-.62-2.57-.4066-.54-1.0466-.81-1.92-.81-.9866 0-1.72.30667-2.2.92-.48.6067-.72 1.4967-.72 2.67 0 1.0933.24 1.94.72 2.54.48.6 1.18.9 2.1.9.5934 0 1.1034-.13 1.53-.39.4334-.2667.7667-.65 1-1.15l2.38.72c-.4133.9733-1.0533 1.73-1.92 2.27-.86.54-1.81.81-2.85.81Zm-3.72-5.03v-1.82h7.43v1.82h-7.43ZM30.4855 18c-.7134.1333-1.4134.19-2.1.17-.68-.0133-1.29-.1367-1.83-.37-.54-.24-.95-.6167-1.23-1.13-.2467-.4667-.3767-.9433-.39-1.43-.0134-.4867-.02-1.0367-.02-1.65V4.2h2.4v9.25c0 .4333.0033.8133.01 1.14.0133.3267.0833.5933.21.8.24.4.6233.6233 1.15.67.5266.0467 1.1266.02 1.8-.08V18Zm-7.53-8.91V7.2h7.53v1.89h-7.53ZM32.2078 18V3.3h2.41V18h-2.41Z"/>
  <path fill="#F6B83D" fill-rule="evenodd" d="M45.4946 7.01677c-1.3596-1.60523-3.6268-2.03704-5.3302-.56712-1.7034 1.46991-1.9432 3.92755-.6055 5.66605.8568 1.1135 3.0511 3.1783 4.5181 4.519.4875.4456.7312.6683 1.0232.7577.251.0768.5378.0768.7887 0 .292-.0894.5358-.3121 1.0232-.7577 1.467-1.3407 3.6613-3.4055 4.5181-4.519 1.3378-1.7385 1.1272-4.2116-.6055-5.66605-1.7327-1.45445-3.9706-1.03811-5.3301.56712Z" clip-rule="evenodd"/>
  <path fill="#262626" d="M58.32 18 54.4 7.2h2.41l2.72 7.83 2.71-7.83h2.42L60.74 18h-2.42Zm11.8541.3c-1.0934 0-2.0534-.2367-2.88-.71-.8267-.4733-1.4734-1.13-1.94-1.97-.46-.84-.69-1.8067-.69-2.9 0-1.18.2266-2.2033.68-3.07.4533-.87333 1.0833-1.55 1.89-2.03.8066-.48 1.74-.72 2.8-.72 1.12 0 2.07.26333 2.85.79.7866.52 1.37 1.25667 1.75 2.21.38.9533.5233 2.0767.43 3.37h-2.39v-.88c-.0067-1.1733-.2134-2.03-.62-2.57-.4067-.54-1.0467-.81-1.92-.81-.9867 0-1.72.30667-2.2.92-.48.6067-.72 1.4967-.72 2.67 0 1.0933.24 1.94.72 2.54.48.6 1.18.9 2.1.9.5933 0 1.1033-.13 1.53-.39.4333-.2667.7666-.65 1-1.15l2.38.72c-.4134.9733-1.0534 1.73-1.92 2.27-.86.54-1.81.81-2.85.81Zm-3.72-5.03v-1.82h7.43v1.82h-7.43Z"/>
</svg>
